<svg width="47" height="57" viewBox="0 0 47 57" fill="none" xmlns="http://www.w3.org/2000/svg">
<g id="mingcute:location-line" clip-path="url(#clip0_45_8)" filter="url(#filter0_d_45_8)">
<g id="Group">
<path id="Vector" fill-rule="evenodd" clip-rule="evenodd" d="M23.5 4.33325C28.1744 4.33325 32.6574 6.38771 35.9628 10.0447C39.2681 13.7016 41.125 18.6615 41.125 23.8333C41.125 30.4936 37.8428 35.9449 34.3844 39.8558C32.6562 41.7882 30.7709 43.5405 28.7523 45.0904L27.918 45.7188L27.5263 46.0069L26.788 46.5269L26.13 46.9711L25.3154 47.4954C24.7622 47.8438 24.1366 48.027 23.5 48.027C22.8634 48.027 22.2378 47.8438 21.6846 47.4954L20.87 46.9711L19.8516 46.2777L19.4756 46.0069L18.6727 45.4154C16.495 43.7846 14.4663 41.9226 12.6156 39.8558C9.15717 35.9406 5.875 30.4936 5.875 23.8333C5.875 18.6615 7.73191 13.7016 11.0372 10.0447C14.3426 6.38771 18.8256 4.33325 23.5 4.33325ZM23.5 8.66658C19.8643 8.66658 16.3776 10.2645 13.8067 13.1088C11.2359 15.9531 9.79167 19.8108 9.79167 23.8333C9.79167 28.8643 12.2827 33.2799 15.414 36.8246C16.7606 38.3324 18.2159 39.7164 19.7655 40.9629L20.6624 41.6693C20.9522 41.8924 21.2303 42.1004 21.4986 42.2933L22.2623 42.8349L22.934 43.2878L23.5 43.6539L24.391 43.0711L25.1097 42.5728C25.4916 42.3041 25.9029 42.0029 26.3376 41.6693L27.2345 40.9629C28.7841 39.7164 30.2394 38.3324 31.586 36.8246C34.7173 33.2821 37.2083 28.8643 37.2083 23.8333C37.2083 19.8108 35.7641 15.9531 33.1933 13.1088C30.6224 10.2645 27.1357 8.66658 23.5 8.66658ZM23.5 15.1666C25.5775 15.1666 27.57 16.0797 29.039 17.705C30.508 19.3303 31.3333 21.5347 31.3333 23.8333C31.3333 26.1318 30.508 28.3362 29.039 29.9615C27.57 31.5868 25.5775 32.4999 23.5 32.4999C21.4225 32.4999 19.43 31.5868 17.961 29.9615C16.492 28.3362 15.6667 26.1318 15.6667 23.8333C15.6667 21.5347 16.492 19.3303 17.961 17.705C19.43 16.0797 21.4225 15.1666 23.5 15.1666ZM23.5 19.4999C22.4612 19.4999 21.465 19.9565 20.7305 20.7691C19.996 21.5818 19.5833 22.684 19.5833 23.8333C19.5833 24.9825 19.996 26.0847 20.7305 26.8974C21.465 27.71 22.4612 28.1666 23.5 28.1666C24.5388 28.1666 25.535 27.71 26.2695 26.8974C27.004 26.0847 27.4167 24.9825 27.4167 23.8333C27.4167 22.684 27.004 21.5818 26.2695 20.7691C25.535 19.9565 24.5388 19.4999 23.5 19.4999Z" fill="#FFFBFB"/>
</g>
</g>
<defs>
<filter id="filter0_d_45_8" x="-4" y="0" width="55" height="60" filterUnits="userSpaceOnUse" color-interpolation-filters="sRGB">
<feFlood flood-opacity="0" result="BackgroundImageFix"/>
<feColorMatrix in="SourceAlpha" type="matrix" values="0 0 0 0 0 0 0 0 0 0 0 0 0 0 0 0 0 0 127 0" result="hardAlpha"/>
<feOffset dy="4"/>
<feGaussianBlur stdDeviation="2"/>
<feComposite in2="hardAlpha" operator="out"/>
<feColorMatrix type="matrix" values="0 0 0 0 0 0 0 0 0 0 0 0 0 0 0 0 0 0 0.25 0"/>
<feBlend mode="normal" in2="BackgroundImageFix" result="effect1_dropShadow_45_8"/>
<feBlend mode="normal" in="SourceGraphic" in2="effect1_dropShadow_45_8" result="shape"/>
</filter>
<clipPath id="clip0_45_8">
<rect width="47" height="52" fill="white"/>
</clipPath>
</defs>
</svg>
